#!OML:ASF H:\Terrain\Patient Classification 1\Walking\liu\liu.ASF
:FULLY-SPECIFIED
:DEGREES
485
root 10.880600 17.286699 31.613800 4.312640 4.298630 4.662650
lowerback -82.975906 -48.263100 -54.084202
upperback 24.845699 -59.596100 14.473701
thorax 80.104103 -32.133602 36.275497
lowerneck -239.999008 -25.693100 -97.416801
upperneck 232.591003 -29.286800 103.533005
head 119.206001 -8.305990 50.612503
rclavicle 0.000000 0.000000
rhumerus -452.882996 86.646103 -855.143982
rradius 376.344971
rwrist -197.945999
rhand -326.181976 -220.312988
rfingers 71.250198
rthumb -58.456200 -519.305969
lclavicle 0.000000 0.000000
lhumerus -57.234001 -217.455002 825.742065
lradius 329.238007
lwrist 86.758606
lhand -170.825989 -257.987000
lfingers 71.250198
lthumb 91.556000 39.825203
rfemur -401.036987 88.316803 100.937004
rtibia 298.701996
rfoot -222.563004 -66.257500
rtoes -157.376999
lfemur 117.387001 24.118999 -295.566010
ltibia 0.000000
lfoot -137.615997 45.182499
ltoes 25.802700
486
root 10.873700 17.275101 31.756500 4.394800 4.281010 4.506040
lowerback -83.334305 -47.682400 -51.385597
upperback 24.001902 -59.086498 14.252200
thorax 79.009697 -31.707201 34.648098
lowerneck -239.125000 -23.239700 -94.685402
upperneck 234.886002 -27.034199 103.395996
head 119.595001 -7.094690 50.559303
rclavicle 0.000000 -0.000000
rhumerus -454.406006 82.675697 -853.463989
rradius 373.300018
rwrist -196.470001
rhand -312.028015 -235.261993
rfingers 71.250198
rthumb -44.790100 -534.588013
lclavicle 0.000000 -0.000000
lhumerus -61.304203 -222.987991 827.994019
lradius 332.690002
lwrist 86.074600
lhand -169.913010 -259.415009
lfingers 71.250198
lthumb 92.437599 38.358601
rfemur -407.330994 97.129700 98.131905
rtibia 293.583008
rfoot -229.295013 -69.448502
rtoes -164.882996
lfemur 121.659004 24.098900 -292.996002
ltibia 0.000000
lfoot -141.500992 45.311897
ltoes 28.904400
487
root 10.868400 17.258400 31.906300 4.422510 4.232930 4.848710
lowerback -65.392197 -47.352100 -52.399502
upperback 8.664240 -59.559303 13.470900
thorax 52.492500 -31.189800 36.466400
lowerneck -227.455002 -23.761301 -95.966103
upperneck 244.371002 -28.165100 100.396004
head 121.085999 -8.448950 49.685303
rclavicle 0.000000 -0.000000
rhumerus -483.731995 84.694298 -855.589966
rradius 375.040009
rwrist -197.467987
rhand -310.737976 -233.488998
rfingers 71.250198
rthumb -43.544102 -532.841003
lclavicle 0.000000 -0.000000
lhumerus -93.819397 -227.914001 842.462036
lradius 336.506012
lwrist 75.064903
lhand -181.750000 -262.233002
lfingers 71.250198
lthumb 81.014008 36.014297
rfemur -411.324005 105.816002 89.455498
rtibia 287.835022
rfoot -237.292999 -71.123497
rtoes -164.619003
lfemur 127.340004 24.235600 -296.037994
ltibia 0.000000
lfoot -145.735992 46.215702
ltoes 19.792301
488
root 10.857000 17.235901 32.042400 4.577570 4.181750 5.229140
lowerback -55.329800 -47.377300 -54.943398
upperback -0.558934 -60.041599 12.402700
thorax 37.366100 -30.963299 37.984200
lowerneck -216.695999 -21.764299 -96.925896
upperneck 246.636993 -26.292200 100.958008
head 119.613998 -7.884770 50.342999
rclavicle -0.000000 0.000000
rhumerus -500.385010 85.373093 -857.522949
rradius 373.684998
rwrist -197.324005
rhand -312.971008 -225.487000
rfingers 71.250198
rthumb -45.700203 -524.794006
lclavicle -0.000000 0.000000
lhumerus -111.391998 -225.400009 849.554993
lradius 343.510010
lwrist 81.044601
lhand -167.472000 -262.325012
lfingers 71.250198
lthumb 94.792603 35.342800
rfemur -416.980011 115.175003 79.187798
rtibia 281.632019
rfoot -243.352997 -74.114395
rtoes -162.483994
lfemur 131.220993 24.123600 -299.298004
ltibia -0.000000
lfoot -148.114990 47.897400
ltoes 14.527300
489
root 10.841400 17.214899 32.185398 4.895430 4.128160 4.869330
lowerback -52.725800 -47.657501 -50.295101
upperback -6.350280 -60.941200 12.853800
thorax 29.540802 -31.048401 36.306499
lowerneck -213.862991 -20.774200 -92.207199
upperneck 251.326996 -26.069099 97.310104
head 120.719002 -7.899890 48.305897
rclavicle 0.000000 -0.000000
rhumerus -510.190002 86.250397 -860.159973
rradius 371.546997
rwrist -196.919998
rhand -313.148010 -226.296997
rfingers 71.250198
rthumb -45.871399 -525.600037
lclavicle 0.000000 -0.000000
lhumerus -123.654007 -226.309998 852.947021
lradius 347.422974
lwrist 80.850800
lhand -164.082001 -263.649017
lfingers 71.250198
lthumb 98.063698 33.867699
rfemur -424.494995 124.892998 77.253098
rtibia 276.184021
rfoot -250.550003 -79.275398
rtoes -151.584991
lfemur 133.376999 24.174599 -294.773987
ltibia 0.000000
lfoot -149.518005 50.848499
ltoes 0.543990
490
root 10.829100 17.197500 32.343201 5.086950 4.224930 4.102420
lowerback -54.758102 -48.112602 -41.632599
upperback -7.990000 -62.026299 14.599200
thorax 28.363098 -31.443501 33.136898
lowerneck -212.311996 -19.617500 -89.643494
upperneck 251.502991 -25.261099 96.589096
head 120.332001 -7.413430 47.696602
rclavicle -0.000000 -0.000000
rhumerus -514.197998 83.905701 -859.952026
rradius 370.497009
rwrist -194.242996
rhand -308.652008 -232.523987
rfingers 71.250198
rthumb -41.529297 -531.916992
lclavicle -0.000000 -0.000000
lhumerus -131.548996 -235.597000 856.502014
lradius 347.662018
lwrist 70.147499
lhand -183.446014 -265.529999
lfingers 71.250198
lthumb 79.377197 32.779499
rfemur -428.591980 131.050995 82.533707
rtibia 272.609009
rfoot -263.634003 -78.042206
rtoes -104.602005
lfemur 137.434998 23.245102 -285.692993
ltibia -0.000000
lfoot -153.056000 51.918301
ltoes -8.174740
491
root 10.819700 17.175400 32.490002 5.077140 4.368030 4.199750
lowerback -54.717201 -48.663601 -42.174103
upperback -7.472380 -62.713699 14.167200
thorax 28.949100 -31.808300 32.898602
lowerneck -217.716995 -20.799301 -87.048195
upperneck 255.041016 -26.705898 93.387100
head 122.891998 -8.136390 45.976902
rclavicle -0.000000 -0.000000
rhumerus -513.893982 78.837296 -857.002014
rradius 368.539001
rwrist -189.195999
rhand -301.226013 -239.260010
rfingers 71.250198
rthumb -34.358299 -538.781006
lclavicle -0.000000 -0.000000
lhumerus -132.526001 -235.802994 857.652954
lradius 351.953003
lwrist 80.382095
lhand -172.012009 -264.175995
lfingers 71.250198
lthumb 90.412102 33.686298
rfemur -430.289001 130.221008 81.620598
rtibia 270.895020
rfoot -281.317017 -55.551201
rtoes 39.654900
lfemur 143.238998 21.558599 -285.282990
ltibia -0.000000
lfoot -157.199005 47.668198
ltoes 7.361640
492
root 10.790200 17.154499 32.652000 4.936680 4.913020 4.856440
lowerback -56.261101 -51.147999 -50.751900
upperback -4.333620 -65.327003 12.122200
thorax 34.032101 -33.359901 34.921997
lowerneck -218.805008 -22.140301 -91.996201
upperneck 251.858994 -28.912300 101.281998
head 122.327995 -8.536930 49.453003
rclavicle -0.000000 0.000000
rhumerus -510.849976 76.117401 -856.531982
rradius 365.205994
rwrist -187.119995
rhand -294.803009 -238.631989
rfingers 71.250198
rthumb -28.155500 -538.244019
lclavicle -0.000000 0.000000
lhumerus -133.141006 -241.475998 857.666992
lradius 352.980988
lwrist 74.942596
lhand -175.278000 -264.209015
lfingers 71.250198
lthumb 87.260803 33.787502
rfemur -429.826019 138.763000 68.953903
rtibia 270.925018
rfoot -296.453003 -69.200600
rtoes 52.866302
lfemur 151.141998 15.640400 -289.670990
ltibia -0.000000
lfoot -159.093002 45.165703
ltoes 15.923600
493
root 10.769200 17.125200 32.807201 4.764720 4.946580 5.376010
lowerback -58.681599 -52.270798 -57.379196
upperback -0.103376 -66.124100 10.532800
thorax 40.451103 -34.076500 36.364799
lowerneck -225.464005 -23.736898 -98.800896
upperneck 253.748001 -31.327000 111.477005
head 125.031998 -8.826019 54.492001
rclavicle 0.000000 0.000000
rhumerus -505.862000 75.726898 -856.710938
rradius 360.246002
rwrist -187.089996
rhand -289.855011 -231.828003
rfingers 71.250198
rthumb -23.376999 -531.497009
lclavicle 0.000000 0.000000
lhumerus -132.932999 -243.358994 857.678955
lradius 352.326996
lwrist 64.408897
lhand -146.143997 -262.799011
lfingers 71.250198
lthumb 115.365997 33.825500
rfemur -428.988983 140.455002 64.131599
rtibia 271.984009
rfoot -295.052002 -85.136703
rtoes 10.504900
lfemur 159.068008 15.002001 -293.703979
ltibia 0.000000
lfoot -160.397003 45.330399
ltoes 27.511999
494
root 10.748100 17.095900 32.955799 4.653240 4.797080 5.517460
lowerback -61.316399 -52.302097 -60.447304
upperback 4.066650 -65.704201 10.486200
thorax 46.604698 -34.167000 37.575401
lowerneck -226.942001 -25.372601 -98.211899
upperneck 248.054016 -32.723701 109.500000
head 123.220993 -9.571290 53.087200
rclavicle 0.000000 0.000000
rhumerus -499.324982 73.223099 -854.429993
rradius 354.595001
rwrist -185.606995
rhand -290.966003 -227.552002
rfingers 71.250198
rthumb -24.450500 -527.208984
lclavicle 0.000000 0.000000
lhumerus -127.731003 -233.794006 856.476990
lradius 357.882019
lwrist 81.169998
lhand -157.376007 -262.091003
lfingers 71.250198
lthumb 104.532005 35.109798
rfemur -427.709991 136.049011 68.079399
rtibia 272.264008
rfoot -291.789001 -86.714897
rtoes -6.775960
lfemur 165.641998 16.234301 -293.651001
ltibia -0.000000
lfoot -160.888000 45.003098
ltoes 9.977470
495
root 10.730600 17.068501 33.110401 4.867290 4.665500 5.488680
lowerback -67.800896 -51.650902 -60.522499
upperback 7.711230 -64.350502 10.632300
thorax 53.968903 -33.739300 37.169300
lowerneck -230.716995 -25.088100 -97.200096
upperneck 244.445007 -32.059902 109.529999
head 122.455994 -9.054140 52.907200
rclavicle -0.000000 0.000000
rhumerus -492.088989 66.356300 -850.245972
rradius 348.674988
rwrist -181.222992
rhand -296.432007 -220.296997
rfingers 71.250198
rthumb -29.728899 -519.887024
lclavicle -0.000000 0.000000
lhumerus -126.917000 -246.730988 858.762939
lradius 354.237000
lwrist 64.455399
lhand -154.761002 -264.812988
lfingers 71.250198
lthumb 107.054993 32.259300
rfemur -427.837982 128.253006 74.124100
rtibia 269.641998
rfoot -245.664993 -132.811005
rtoes -262.907990
lfemur 168.912994 16.868999 -292.016998
ltibia 0.000000
lfoot -160.757996 45.366402
ltoes -54.544701
496
root 10.715700 17.051300 33.271301 5.180130 4.616550 5.526850
lowerback -75.323196 -51.059097 -60.591301
upperback 10.583400 -62.996803 10.286100
thorax 61.079300 -33.267601 36.236401
lowerneck -238.402008 -24.542000 -94.840607
upperneck 245.421997 -31.942101 110.840996
head 124.346001 -8.417570 53.201599
rclavicle 0.000000 0.000000
rhumerus -485.882996 60.193802 -847.235046
rradius 341.869995
rwrist -177.106995
rhand -298.834991 -212.203995
rfingers 71.250198
rthumb -32.049202 -511.761017
lclavicle 0.000000 0.000000
lhumerus -122.208008 -247.429016 857.539978
lradius 360.106018
lwrist 89.382004
lhand -98.913803 -255.645996
lfingers 71.250198
lthumb 160.881989 37.875298
rfemur -427.783020 120.213005 78.784302
rtibia 267.042999
rfoot -245.664993 -132.811005
rtoes -262.907990
lfemur 171.368011 16.451099 -290.820007
ltibia 0.000000
lfoot -161.184006 42.390701
ltoes -66.775200
